#!OML:ASF H:\Terrain\Patient Classification 1\Animal1\Tuesday\Animal1.ASF
:FULLY-SPECIFIED
:DEGREES
1075
root 14.8386 15.6586 0.910942 9.85859 24.6415 -1.55274
lowerback 16.084 -0.900903 1.46212
upperback -0.21319 -0.755121 1.58897
thorax -9.2804 -0.381919 1.06454
lowerneck -12.3404 2.14788 -2.9463
upperneck -13.1292 3.76437 5.25101
head -2.30844 2.01941 2.27319
rclavicle 6.63941e-014 -1.74931e-014
rhumerus -25.1827 -39.5276 6.75929
rradius 71.0154
rwrist 2.84921
rhand 29.0804 -2.18358
rfingers 7.12502
rthumb 52.8783 -21.7527
lclavicle 6.63941e-014 -1.74931e-014
lhumerus -35.5123 36.1927 1.41611
lradius 94.3993
lwrist -46.2076
lhand 49.5313 66.7704
lfingers 7.12502
lthumb 69.6419 -296.385
rfemur -47.0633 16.8994 10.1201
rtibia 46.3002
rfoot -11.8717 -12.3065
rtoes 2.28313
lfemur -30.7884 -14.9265 -12.4764
ltibia 51.034
lfoot -29.2259 9.5188
ltoes -21.6306
1076
root 14.8416 15.6602 0.898518 9.91598 24.4396 -1.47527
lowerback 16.0928 -0.869796 1.46184
upperback -0.245216 -0.719477 1.52649
thorax -9.32143 -0.366749 0.989482
lowerneck -12.3303 2.14017 -2.92114
upperneck -13.0975 3.75383 5.31321
head -2.29986 2.01194 2.28941
rclavicle 3.94588e-014 0
rhumerus -25.2362 -39.2957 6.72859
rradius 70.9269
rwrist 2.68
rhand 28.6759 -2.43526
rfingers 7.12502
rthumb 52.5127 -22.2314
lclavicle 3.94588e-014 0
lhumerus -35.482 36.2283 1.37872
lradius 94.3176
lwrist -46.1965
lhand 49.8818 66.5594
lfingers 7.12502
lthumb 69.8741 -297.308
rfemur -47.2014 16.8744 9.99223
rtibia 46.286
rfoot -11.997 -11.7813
rtoes 3.04414
lfemur -30.8211 -14.8538 -12.628
ltibia 51.0973
lfoot -29.0257 10.2968
ltoes -23.6468
1077
root 14.847 15.662 0.887976 9.90399 24.3261 -1.47428
lowerback 16.1057 -0.89356 1.5822
upperback -0.272945 -0.731262 1.48739
thorax -9.36134 -0.37926 0.882554
lowerneck -12.2951 2.12202 -2.86768
upperneck -13.0518 3.71875 5.30625
head -2.28686 1.99105 2.27627
rclavicle -2.84262e-014 -2.64384e-014
rhumerus -25.1888 -39.1768 6.68294
rradius 70.7175
rwrist 2.74726
rhand 29.1806 -2.25477
rfingers 7.12502
rthumb 52.9687 -21.7669
lclavicle -2.84262e-014 -2.64384e-014
lhumerus -35.4579 36.2609 1.3249
lradius 94.1758
lwrist -46.2554
lhand 50.3368 66.1991
lfingers 7.12502
lthumb 70.1705 -298.618
rfemur -47.2036 16.883 9.9347
rtibia 46.2713
rfoot -12.0457 -11.4597
rtoes 3.24099
lfemur -30.8458 -14.8827 -12.6785
ltibia 51.1768
lfoot -28.8664 10.2849
ltoes -23.1906
1078
root 14.8534 15.6606 0.87963 9.80848 24.2275 -1.58978
lowerback 16.0183 -0.968836 1.69334
upperback -0.210081 -0.808782 1.53637
thorax -9.24367 -0.419935 0.887992
lowerneck -12.3426 2.17012 -2.75865
upperneck -12.9515 3.75972 5.23674
head -2.24258 2.00764 2.23411
rclavicle 4.33351e-014 1.59028e-015
rhumerus -24.7418 -39.5355 6.49369
rradius 70.2165
rwrist 3.07268
rhand 30.1816 -1.51106
rfingers 7.12502
rthumb 53.8701 -20.4365
lclavicle 4.33351e-014 1.59028e-015
lhumerus -35.6451 36.2786 1.07641
lradius 94.044
lwrist -46.198
lhand 50.418 65.8134
lfingers 7.12502
lthumb 70.2228 -299.176
rfemur -47.1603 16.9069 10.0692
rtibia 46.2605
rfoot -11.5762 -11.7149
rtoes 0.424708
lfemur -30.8366 -14.9354 -12.6124
ltibia 51.2614
lfoot -28.8149 9.97901
ltoes -21.3745
1079
root 14.8585 15.6532 0.869521 9.6264 24.0823 -1.73715
lowerback 16.0579 -1.00879 1.78238
upperback -0.160474 -0.836983 1.61396
thorax -9.21207 -0.435105 0.927845
lowerneck -12.3675 2.22746 -2.76603
upperneck -12.7332 3.8287 5.29725
head -2.16963 2.04216 2.25704
rclavicle -2.98177e-016 2.96189e-014
rhumerus -24.3134 -39.9177 6.33386
rradius 69.6131
rwrist 3.34442
rhand 29.4222 -1.4055
rfingers 7.12502
rthumb 53.1868 -20.7789
lclavicle -2.98177e-016 2.96189e-014
lhumerus -35.7123 36.3976 0.957889
lradius 93.8325
lwrist -46.2051
lhand 50.0718 65.1591
lfingers 7.12502
lthumb 69.9986 -299.101
rfemur -47.1149 17.0511 10.2257
rtibia 46.2567
rfoot -11.032 -12.011
rtoes -2.59423
lfemur -30.7305 -14.9187 -12.5524
ltibia 51.3508
lfoot -28.7947 10.0317
ltoes -21.3008
1080
root 14.8617 15.6508 0.858457 9.51786 23.9126 -1.71495
lowerback 16.1611 -0.994194 1.72146
upperback -0.200417 -0.822903 1.6388
thorax -9.31311 -0.424993 0.988871
lowerneck -12.4177 2.23846 -2.9263
upperneck -12.3203 3.85345 5.51943
head -2.03287 2.06111 2.36202
rclavicle -4.4329e-014 1.63003e-014
rhumerus -24.5484 -39.6084 6.42503
rradius 69.8006
rwrist 3.10703
rhand 29.0882 -1.60779
rfingers 7.12502
rthumb 52.8854 -21.1725
lclavicle -4.4329e-014 1.63003e-014
lhumerus -35.5348 36.5218 1.06325
lradius 93.591
lwrist -46.3538
lhand 49.8173 64.8165
lfingers 7.12502
lthumb 69.8316 -298.919
rfemur -47.1214 17.3069 10.0995
rtibia 46.2947
rfoot -11.0965 -11.7369
rtoes -1.11792
lfemur -30.6103 -14.8435 -12.6553
ltibia 51.4235
lfoot -28.7995 9.98648
ltoes -21.2751
1081
root 14.8636 15.6536 0.845273 9.52955 23.7325 -1.55889
lowerback 16.2243 -0.971087 1.55232
upperback -0.286462 -0.823151 1.62074
thorax -9.44107 -0.41795 1.06843
lowerneck -12.4833 2.21178 -3.04291
upperneck -11.9131 3.8182 5.6827
head -1.89034 2.04906 2.43879
rclavicle -3.26007e-014 -2.64384e-014
rhumerus -24.9323 -39.052 6.56342
rradius 70.4379
rwrist 2.6428
rhand 29.8258 -2.02257
rfingers 7.12502
rthumb 53.5502 -21.1602
lclavicle -3.26007e-014 -2.64384e-014
lhumerus -35.3388 36.4234 1.16407
lradius 93.4761
lwrist -46.4404
lhand 49.6187 64.9737
lfingers 7.12502
lthumb 69.7001 -298.358
rfemur -47.2064 17.4398 9.88841
rtibia 46.3853
rfoot -11.0256 -11.5997
rtoes -0.92605
lfemur -30.6151 -14.7525 -12.8811
ltibia 51.4698
lfoot -28.5693 10.1368
ltoes -21.6371
